<?xml version="1.0" standalone="no"?>
<!DOCTYPE svg PUBLIC "-//W3C//DTD SVG 1.1//EN" "http://www.w3.org/Graphics/SVG/1.1/DTD/svg11.dtd" >
<svg xmlns="http://www.w3.org/2000/svg">
<metadata>
This is a custom SVG webfont generated by Font Squirrel.
Copyright   : Copyright c Chriztian Steinmeier 2004 Created by wwwfontifiercom
</metadata>
<defs>
<font id="ChriztianSteinmeierHandRg" horiz-adv-x="826" >
<font-face units-per-em="2048" ascent="1536" descent="-512" />
<missing-glyph horiz-adv-x="500" />
<glyph unicode="!" horiz-adv-x="337" d="M64 17l9 27l26 8h35l26 -8l35 -35v-18l-35 -35l-26 -8l-26 8l-35 35zM64 471v245l9 26l17 17l9 26v559l9 26l26 9h70l26 -9l9 -26v-35l8 -26l18 -18v-17l-18 -17l-8 -27v-244l-9 -26l-18 -18l-8 -26v-454l-9 -26l-26 -9h-35l-26 9l-35 35z" />
<glyph unicode="&#x22;" horiz-adv-x="581" d="M64 1239l9 26l17 18l18 52l26 9h70l26 -9l17 -52l18 -18l8 -26v-35l9 -26l18 -17l17 -53l18 -17l8 -26v-35l-8 -26l-70 -70h-18l-17 17l-53 18l-34 35l-18 52l-17 17l-9 27v69l-9 27l-17 17zM273 1344l9 26l35 35l26 9l26 -9l105 -105l18 -52l17 -17l9 -27v-174l-9 -26 l-26 -9h-35l-26 9l-18 52l-17 17l-18 53l-17 17l-9 26v35l-8 27l-18 17l-17 52l-18 18z" />
<glyph unicode="$" horiz-adv-x="791" d="M64 227l9 26l26 9h35l26 -9l17 -17l27 -9h69l27 9l35 35l8 26v35l-8 26l-18 17l-9 26v245l-8 26l-88 87l-8 26v175l8 26l18 18l9 26v35l8 26l18 17l17 53l18 17l8 26v210l9 26l35 35h17l18 -52h17l18 52h17l18 -52l35 -35l52 -18l17 -52l53 -53l9 -26v-70l-9 -26 l-122 -122l-18 -52l-17 -18v-17l17 -18l18 -52l192 -192l17 -52l18 -18l8 -26v-209l-8 -27l-18 -17l-17 -52l-157 -158l-18 -52l-17 -17l-18 -53h-17l-18 53h-17l-53 -53h-17l-17 53l-27 8h-35l-26 9l-17 18l-53 17l-104 105zM343 436l9 -26l17 -17l9 -26v-70l9 -26h17l9 26 v174l-9 26l-17 18l-9 26v35l-9 26h-17l-9 -26v-140zM378 -87l9 26h17l9 -26v-70l-9 -26h-17l-9 26v70zM413 -262l9 26h17l9 -26v-70l-9 -26h-17l-9 26v70zM422 515l17 -18l9 -26v-139l9 -27l35 -34h17l70 69l9 27v139l-9 26l-35 35l-26 9h-35l-26 -9l-35 -35v-17zM448 -436 l9 26h17l9 -26l-9 -27h-17zM483 -122l9 26h17l9 -26l-9 -26h-17zM518 -262l9 26h17l9 -26v-35l-9 -26h-17l-9 26v35z" />
<glyph unicode="&#x26;" horiz-adv-x="965" d="M64 332v69l9 27l70 69l52 18l17 17l53 18l17 17l53 18l34 35l9 26v35l-9 26l-87 87l-17 53l-18 17l-8 26l8 26l105 105l26 9h35l26 9l18 17l52 17l70 70l9 26v35l-9 27l-18 17l-8 26v105l8 26l35 35l27 9h34l27 -9l35 -35l8 -26v-70l9 -26l17 -18l9 -26v-244l-9 -26 l-69 -70l-53 -18l-8 -26l8 -26l88 -87l8 -26l-8 -27l-18 -17l-17 -52l-35 -35l-53 -18l-17 -17l-26 -9h-70l-26 -9l-18 -17l-52 -18l-70 -69l-9 -27v-34l9 -27l26 -8h35l26 -9l18 -18l26 -8h140l26 8l17 18l26 9h35l27 8l17 18l26 9l26 -9l18 -18l52 -17l18 -52l17 -18 l9 -26v-175l-9 -26l-17 -17l-9 -26v-245l-9 -26l-17 -17l-18 -53l-35 -35h-17l-70 70l-9 26v419l-8 26l-35 35l-26 9h-105l-26 -9l-18 -17l-26 -9h-140l-26 9l-17 17l-26 9h-35l-27 9l-104 104z" />
<glyph unicode="'" horiz-adv-x="302" d="M64 1135v139l9 26l35 35l26 9l26 -9l70 -70l9 -26v-209l-9 -26l-35 -35l-26 -9l-26 9l-35 35l-9 26v35l-9 26l-17 17z" />
<glyph unicode="(" horiz-adv-x="651" d="M64 576v175l9 26l17 17l9 26v105l9 26l17 18l9 26v35l9 26l17 17l17 53l18 17l17 53l53 52l17 52l105 105h17l18 -17l52 -18l9 -26v-35l-9 -26l-17 -18l-18 -52l-87 -87l-17 -53l-18 -17l-17 -52l-18 -18l-9 -26v-35l-8 -26l-18 -18l-8 -26v-384l8 -26l18 -17l17 -53 l105 -104l52 -18l18 -17l26 -9h70l26 -9l9 -26v-35l-9 -26l-35 -35l-26 -9h-140l-26 9l-17 17l-53 18l-105 105l-17 52l-17 17l-18 53l-17 17l-9 26v105l-9 26l-17 18z" />
<glyph unicode=")" horiz-adv-x="651" d="M64 1239v35l9 26l26 9h70l26 -9l87 -87l53 -17l139 -140l18 -52l17 -18l18 -52l17 -18l9 -26v-35l8 -26l18 -17l9 -27v-244l-9 -26l-18 -18l-8 -26v-35l-9 -26l-17 -17l-9 -26v-35l-9 -27l-17 -17l-18 -52l-17 -18l-18 -52l-87 -87l-17 -53l-18 -17l-17 -53l-105 -104 h-18l-17 17l-52 18l-9 26l9 26l17 17l18 53l122 122l17 52l18 18l8 26v35l9 26l18 17l17 53l17 17l18 53l17 17l9 26v140l9 26l17 18l9 26l-9 26l-17 17l-9 27v104l-9 26l-17 18l-18 52l-52 53l-17 52l-35 35l-53 17l-52 53l-52 17l-35 35z" />
<glyph unicode="," horiz-adv-x="407" d="M64 -262l9 26l17 18l9 26v35l9 26l17 18l9 26v104l-9 27l-17 17l-9 26v70l9 26l35 35l26 9h70l26 -9l35 -35l8 -26v-35l9 -26l18 -17l8 -27v-174l-8 -26l-18 -18l-17 -52l-105 -105l-52 -17l-18 -18l-26 -9l-26 9l-9 26v70z" />
<glyph unicode="-" d="M64 785l9 27l70 69l26 9l26 -9l17 -17l27 -9h104l26 -8l18 -18l26 -9h140l26 9l17 18l27 8h69l27 -8l34 -35l9 -27v-34l-9 -27l-34 -35l-27 -8h-174l-26 -9l-18 -17l-26 -9h-244l-27 9l-104 104z" />
<glyph unicode="." horiz-adv-x="337" d="M64 17v140l9 26l17 18l18 52l26 9h70l26 -9l35 -35l8 -26v-105l-8 -26l-18 -17l-17 -53l-35 -35l-26 -8h-35l-26 8l-35 35z" />
<glyph unicode="/" horiz-adv-x="1000" d="M64 201v17l17 18l9 26v35l9 26l52 52l18 53l17 17l18 52l17 18l18 52l52 53l9 26v35l8 26l18 17l17 53l18 17l17 53l53 52l17 52l52 53l18 52l52 52l18 53l17 17l18 53l17 17l17 52l53 53l17 52l53 18l17 17l26 9l26 -9l70 -70l9 -26l-9 -26l-17 -18l-18 -52l-17 -17 l-18 -53l-87 -87l-17 -52l-88 -88l-17 -52l-87 -87l-18 -53l-17 -17l-18 -53l-17 -17l-18 -52l-17 -18l-17 -52l-18 -18l-17 -52l-18 -17l-17 -53l-18 -17l-17 -53l-18 -17l-8 -26v-35l-9 -26l-52 -53l-18 -52l-26 -9h-70l-26 9l-18 52z" />
<glyph unicode="0" horiz-adv-x="861" d="M64 367v244l9 26l17 18l9 26v35l9 26l17 17l18 53l52 52l17 52l18 18l9 26v35l8 26l35 35l53 17l17 18h17l18 -18l52 -17l18 -17l52 -18l140 -140l17 -52l53 -52l17 -53l17 -17l9 -26v-35l9 -26l17 -18l9 -26v-175l-9 -26l-17 -17l-18 -53l-17 -17l-17 -52l-18 -18 l-17 -52l-18 -18l-17 -52l-105 -105l-26 -8h-175l-26 8l-17 18l-53 17l-70 70l-17 52l-17 18l-18 52l-17 18l-9 26v35l-9 26l-17 17zM169 401l8 -26l18 -17l9 -26v-35l8 -26l53 -53l17 -52l53 -18l17 -17l26 -9l26 9l175 174l17 53l18 17l9 26v210l-9 26l-18 18l-17 52 l-140 140l-26 8h-35l-26 -8l-140 -140l-8 -26v-35l-9 -26l-18 -18l-8 -26v-175z" />
<glyph unicode="1" horiz-adv-x="616" d="M64 -17v34l9 27l35 35l52 17l70 70l9 26v698l8 26l18 18l17 52l35 35l26 9l26 -9l35 -35l9 -26v-140l-9 -26l-17 -17l-9 -26v-140l-9 -26l-17 -18l-9 -26v-349l9 -26l70 -70l26 -9h70l26 -8l9 -27v-69l-9 -27l-35 -35l-52 -17l-18 -17l-26 -9h-35l-26 -9l-17 -17l-27 -9 h-69l-27 9l-17 17l-26 9h-35l-26 9l-18 52l-17 17z" />
<glyph unicode="2" horiz-adv-x="896" d="M64 -17v34l9 27l17 17l18 52l17 18l18 52l17 18l17 52l297 297l18 52l87 87l9 27v35l8 26l18 17l9 26l-9 27l-35 34l-26 9h-70l-26 -9l-53 -52l-26 -9h-70l-26 9l-9 26v70l9 26l35 35l52 18l18 17l26 9h35l26 9l18 17l26 9h105l26 -9l104 -105l9 -26v-209l-9 -27l-17 -17 l-17 -52l-53 -53l-17 -52l-332 -332l-9 -26v-35l9 -26l35 -35l26 -9h384l26 -8l35 -35l9 -26v-70l-9 -26l-26 -9h-349l-26 -9l-18 -17l-26 -9h-209l-26 9l-35 35l-18 52l-17 17z" />
<glyph unicode="3" d="M64 -17l9 26l26 8h244l26 9l18 18l52 17l70 70l18 52l52 53l9 26v139l-9 27l-35 35l-26 8h-210l-26 9l-35 35l-8 26v105l8 26l122 122l9 26l-9 27l-34 34l-53 18l-35 35l-8 26v70l8 26l26 9h280l26 -9l17 -17l53 -18l17 -52l18 -18l8 -26l-8 -26l-157 -157l-9 -26l9 -27 l69 -69l53 -18l70 -70l17 -52l17 -17l9 -27v-209l-9 -26l-17 -18l-17 -52l-105 -105l-53 -17l-17 -18l-52 -17l-18 -18l-52 -17l-18 -18l-52 -17l-17 -17l-27 -9h-139l-26 9l-70 69z" />
<glyph unicode="4" horiz-adv-x="930" d="M64 401v35l9 27l157 157l17 52l88 87l17 53l87 87l18 52l17 18l18 52l52 18l17 17h18l70 -70l8 -26v-349l9 -26l35 -35l26 -9h70l26 -9l35 -35v-17l-35 -35l-26 -9h-35l-26 -8l-70 -70l-9 -26v-349l-8 -27l-35 -35l-26 -8h-35l-26 8l-18 53l-17 17l-9 26v70l9 26l17 18 l9 26l-9 26l-17 18l-9 26v70l-9 26l-35 35l-26 9h-105l-26 -9l-52 -53l-26 -8h-35l-26 8l-70 70zM317 550l35 -35l26 -9l26 9l18 17l52 18l9 26v105l-9 26l-26 9l-26 -9l-35 -35l-18 -52l-52 -53v-17z" />
<glyph unicode="5" horiz-adv-x="791" d="M64 -131l26 9h210l26 9l17 17l53 17l104 105l18 53l17 17l18 52l17 18l9 26v209l-9 27l-70 69l-26 9h-105l-26 -9l-17 -17l-53 -17l-17 -18l-26 -9h-35l-26 9l-35 35l-18 52l-17 18l-9 26l9 26l17 18l9 26v70l9 26l17 17l9 26v105l-9 26l-17 18l-9 26v70l9 26l35 35l26 9 h140l26 -9l17 -18l26 -8h245l26 -9l17 -52l18 -18l9 -26l-9 -26l-35 -35l-26 -9h-245l-26 -9l-17 -17l-53 -17l-35 -35l-8 -27v-69l8 -27l35 -34l27 -9h139l26 -9l18 -17l52 -18l18 -17l52 -18l17 -52l53 -52l9 -27v-244l-9 -26l-18 -18l-17 -52l-52 -52l-18 -53l-209 -209 l-53 -18l-17 -17l-26 -9h-105l-26 9l-18 17l-52 18l-18 52l-17 18v17z" />
<glyph unicode="6" d="M64 332v69l9 27l17 17l9 26v35l9 26l17 18l18 52l52 53l17 52l18 17l17 53l18 17l17 53l140 139l52 18l18 17h17l18 -17l52 -18l9 -26v-35l-9 -26l-105 -105l-52 -17l-70 -70l-17 -52l-18 -18v-17l35 -35l26 -9h105l26 -9l18 -17l52 -18l17 -17l53 -18l35 -34l17 -53 l18 -17l17 -53l17 -17l9 -26v-70l-9 -26l-17 -18l-9 -26v-70l-8 -26l-53 -52l-17 -53l-35 -35l-26 -8h-175l-26 8l-18 18l-52 17l-105 105l-17 52l-52 53l-18 52l-17 18l-18 52l-17 17zM273 227l9 -26l105 -105l52 -17l18 -18l26 -9l26 9l18 18l52 17l17 52l18 18l9 26v105 l-9 26l-105 105l-26 8h-140l-26 -8l-35 -35l-9 -26v-140z" />
<glyph unicode="7" d="M64 890v35l9 26l35 35l26 9h35l26 -9l17 -17l27 -9h34l27 -9l17 -17l26 -9h175l26 9l17 17l27 9h69l27 -9l35 -35l17 -52l17 -17l9 -27l-9 -26l-17 -17l-17 -53l-88 -87l-17 -52l-18 -18l-17 -52l-18 -18l-17 -52l-17 -17l-9 -27v-34l-9 -27l-17 -17l-18 -52l-17 -18 l-9 -26v-35l-9 -26l-17 -18l-9 -26v-349l-9 -26l-17 -18l-18 -52l-34 -35h-18l-35 35l-9 26v349l9 27l18 17l8 26v70l9 26l18 18l8 26v35l9 26l17 17l9 27v69l9 27l17 17l18 52l17 18l9 26v35l9 26l17 18l9 26v35l-9 26l-35 35l-26 8h-244l-26 9l-70 70z" />
<glyph unicode="8" horiz-adv-x="965" d="M64 -52v174l9 26l17 18l9 26v35l9 26l17 18l18 52l52 52l17 53l18 17l9 26l-9 26l-18 18l-17 52l-18 18l-8 26v174l8 27l18 17l17 52l70 70l53 18l52 52l52 18l18 17l52 17l18 18l26 9h35l26 -9l52 -52l53 -18l139 -140l9 -26v-104l-9 -27l-70 -69l-26 -9h-35l-26 9 l-9 26v104l-8 27l-35 35l-26 8h-245l-26 -8l-70 -70l-9 -26v-35l9 -27l70 -69l26 -9h210l26 9l17 17h18l8 -26v-105l9 -26l157 -157l18 -52l17 -18l18 -52l17 -18l9 -26v-174l-9 -27l-52 -52l-18 -52l-35 -35l-52 -18l-87 -87l-26 -9h-70l-26 -8l-18 -18l-26 -9h-140l-26 9 l-17 18l-53 17l-17 17l-53 18l-69 70l-9 26v35l-9 26l-17 17zM169 -52l8 -27l70 -69l53 -18l17 -17h18l17 17l26 9h175l26 9l140 139l17 53l17 17l9 26l-9 26l-17 18l-9 26v35l-8 26l-35 35l-53 18l-52 52l-52 17l-18 18l-52 17l-18 18l-26 8l-26 -8l-18 -18l-52 -17 l-70 -70l-17 -52l-18 -18l-17 -52l-18 -18l-8 -26v-174z" />
<glyph unicode="9" d="M64 611v209l9 27l17 17l18 52l279 280l52 17l18 18l26 8h35l26 -8l17 -18l53 -17l9 -27v-174l8 -26l18 -18l17 -52l53 -52l8 -27v-69l9 -27l17 -17l9 -26v-140l-9 -26l-17 -18l-17 -52l-18 -17l-17 -53l-18 -17l-17 -53l-18 -17l-17 -52l-18 -18l-17 -52l-122 -122 l-18 -53l-70 -70l-52 -17l-17 -17l-27 -9l-26 9l-8 26v35l8 26l227 227l18 52l17 18l9 26v35l-9 26l-26 9h-175l-26 8l-17 18l-53 17l-69 70l-18 52l-52 53zM169 646l8 -26l18 -18l17 -52l53 -18l17 -17l53 -18l17 -17h17l18 17l26 9h70l26 9l70 70l9 26v35l8 26l18 17l9 27 l-9 26l-18 17l-8 26v35l-9 27l-18 17l-8 26v35l-9 26l-35 35l-52 18l-18 17l-26 9h-35l-26 -9l-175 -174l-8 -27v-174z" />
<glyph unicode=":" horiz-adv-x="337" d="M64 820v35l9 26l35 35l26 9h35l26 -9l35 -35l9 -26v-70l-9 -26l-35 -35l-26 -8l-26 8l-70 70zM73 410v18l70 69l26 9l26 -9l70 -69l8 -27v-34l-8 -27l-35 -35l-26 -8h-35l-26 8l-35 35l-18 53z" />
<glyph unicode=";" horiz-adv-x="407" d="M64 236v17l17 18l9 26v174l9 26l70 70h17l18 -17l52 -18l70 -69l9 -27v-104l-9 -27l-18 -17l-17 -52l-18 -18l-17 -52l-52 -18l-18 -17l-26 -9l-26 9l-35 35l-18 52zM90 925l9 26l35 35l26 9h35l26 -9l70 -70l9 -26l-9 -26l-35 -35l-26 -9h-35l-26 9l-70 70z" />
<glyph unicode="?" horiz-adv-x="721" d="M64 1204l9 27l35 34l52 18l17 17l27 9h314l26 -9l70 -69l17 -53l18 -17l8 -26l-8 -27l-18 -17l-17 -52l-87 -88l-18 -52l-87 -87l-18 -53l-17 -17l-9 -26v-35l-9 -26l-17 -18l-9 -26v-140l-8 -26l-27 -9h-35l-26 9l-35 35l-17 52l-18 18v17l18 18l9 26v35l8 26l18 17 l9 27v35l8 26l88 87l17 52l17 18l9 26v35l9 26l17 18l9 26v35l-9 26l-26 9h-70l-26 -9l-17 -18l-26 -8h-70l-26 8l-70 70zM273 -52l9 26l26 9l27 -9l69 -70v-17l-35 -35l-26 -9l-26 9l-35 35l-9 26v35z" />
<glyph unicode="@" horiz-adv-x="1140" d="M64 297v314l9 26l17 18l9 26v35l9 26l17 17l18 53l17 17l17 52l53 53l17 52l70 70l52 17l53 53l52 17l18 18l26 8h70l26 9l17 18l26 8h140l26 -8l18 -18l52 -17l18 -53l87 -87l17 -52l18 -18l8 -26v-35l9 -26l18 -17l8 -27v-349l-8 -26l-18 -17l-17 -53l-105 -104l-26 -9 h-210l-26 -9l-87 -87l-26 -9h-105l-26 9l-105 105l-9 26v209l9 26l18 18l17 52l17 18l18 52l17 17l18 53l17 17l18 53l35 35l52 17l17 17l27 9h104l27 -9l34 -34l18 -53l17 -17l9 -26v-140l-9 -26l-17 -18v-17l17 -18l9 -26v-35l9 -26l26 -9h35l26 9l35 35l17 52l18 18l9 26 v244l-9 27l-18 17l-8 26v35l-9 26l-17 18l-18 52l-70 70l-26 9h-174l-27 -9l-17 -18l-52 -17l-18 -17l-52 -18l-18 -17l-52 -18l-70 -70l-17 -52l-53 -52l-17 -53l-18 -17l-8 -26v-70l-9 -26l-18 -18l-8 -26v-140l8 -26l18 -17l9 -26v-105l8 -26l18 -18l17 -52l18 -18 l17 -52l18 -17l17 -53l175 -174l52 -18l17 -17l27 -9h69l27 9l17 17l52 18l123 122l26 9l26 -9l9 -26v-70l-9 -26l-17 -18l-18 -52l-70 -70l-26 -9h-35l-26 -8l-17 -18l-27 -9h-104l-27 9l-17 18l-52 17l-88 87l-52 18l-35 35l-17 52l-88 87l-8 26v35l-9 27l-52 52l-18 52 l-17 18l-18 52l-17 18zM413 401l9 -26l35 -35l26 -8h35l26 8l35 35l17 53l18 17l9 26v35l-9 26l-18 18l-8 26v35l-9 26l-26 9l-26 -9l-70 -70l-18 -52l-17 -18l-9 -26v-70z" />
<glyph unicode="A" horiz-adv-x="1140" d="M64 122v140l9 26l17 17l9 27v35l9 26l17 17l18 53l17 17l9 26v35l8 26l18 18l9 26v35l8 26l18 17l9 27v35l8 26l18 17l8 26v35l9 26l18 18l8 26v35l9 26l18 18l8 26v35l9 26l17 17l18 53l17 17l18 53l17 17l18 52l52 18l18 17h17l17 -17l53 -18l17 -52l18 -17l17 -53 l18 -17l17 -53l18 -17l8 -26v-35l9 -26l17 -18l18 -52l17 -18l18 -52l122 -122l9 -26v-140l8 -26l18 -18l17 -52l18 -17l17 -53l18 -17l17 -53l18 -17l8 -26v-70l-8 -26l-27 -9h-104l-26 9l-35 35l-18 52l-17 17l-18 53l-52 52l-9 26v35l-9 26l-104 105l-26 9h-140l-26 -9 l-70 -70l-18 -52l-17 -17l-9 -27v-35l-8 -26l-18 -17l-17 -53l-18 -17l-9 -26v-35l-8 -26l-18 -18l-17 -52l-70 -70l-26 -9l-26 9l-35 35z" />
<glyph unicode="B" horiz-adv-x="965" d="M64 227v698l9 26l17 18l9 26v279l9 26l35 35l26 9h35l26 9l17 17l26 9h280l26 -9l105 -105l8 -26v-104l-8 -27l-18 -17l-9 -26l9 -26l192 -192l18 -53l17 -17l9 -26v-140l-9 -26l-17 -18l-18 -52l-52 -52l-18 -53l-279 -279l-52 -18l-18 -17l-26 -9h-70l-26 -8l-17 -18 h-18l-17 18l-26 8h-35l-27 9l-104 105zM239 401l8 -26l70 -70h18l17 18l52 17l53 53l52 17l35 35l17 52l53 53l17 52l18 18l8 26v105l-8 26l-53 17l-17 18l-26 8h-70l-26 -8l-18 -18l-26 -9h-35l-26 -8l-70 -70l-17 -52l-18 -18l-8 -26v-210zM317 1108l26 -8l26 8v18l-26 9 l-26 -9v-18z" />
<glyph unicode="C" horiz-adv-x="930" d="M64 436v280l9 26l17 17l9 26v70l9 26l17 18l18 52l17 18l17 52l18 18l17 52l280 279l26 9h105l26 -9l8 -26v-105l-8 -26l-35 -35l-53 -17l-209 -210l-17 -52l-18 -18l-9 -26v-70l-8 -26l-18 -17l-9 -26v-70l-8 -26l-18 -18l-8 -26v-70l8 -26l18 -17l8 -27v-35l9 -26 l105 -104l52 -18l18 -17l26 -9l26 9l18 17l52 18l52 52l53 17l52 53l26 8h35l26 -8l35 -35v-18l-17 -17l-18 -52l-17 -18l-18 -52l-104 -105l-53 -17l-17 -18l-53 -17l-17 -18l-26 -9h-70l-26 9l-18 18l-52 17l-17 18l-53 17l-139 140l-18 52l-17 17l-9 27v35l-9 26l-17 17z " />
<glyph unicode="D" d="M64 87l9 26l17 18l9 26v35l9 26l17 18l9 26v35l-9 26l-17 17l-9 27v523l9 26l17 18l9 26v314l9 26l69 70l27 9l26 -9l17 -17l26 -9h35l26 -9l18 -17l52 -18l18 -17l52 -18l18 -17l52 -17l105 -105l17 -53l18 -17l17 -52l17 -18l9 -26v-314l-9 -26l-17 -18l-17 -52 l-18 -18l-17 -52l-53 -52l-17 -53l-227 -227l-18 -52l-69 -70l-53 -17l-17 -18l-26 -8h-70l-26 8l-18 53l-17 17zM273 506l9 -26l35 -35l26 -9l26 9l105 105l18 52l52 53l9 26v35l8 26l18 17l9 26v105l-9 26l-18 18l-17 52l-105 105l-26 9h-35l-26 -9l-35 -35l-17 -52 l-18 -18l-9 -26v-454z" />
<glyph unicode="E" horiz-adv-x="896" d="M64 297v384l9 26l17 17l9 27v244l9 26l17 18v17l-17 17l-9 27v69l9 27l17 17l18 52l34 35l53 18l17 17l26 9h35l27 -9l17 -17h17l18 17l26 9h349l26 -9l35 -35l9 -26l-9 -26l-70 -70l-26 -9h-35l-26 -8l-17 -18l-26 -8h-140l-26 -9l-18 -18l-26 -8h-35l-26 -9l-35 -35 l-9 -26v-35l-8 -26l-18 -18l-9 -26v-105l9 -26l35 -35l26 -8h175l26 8l17 18l27 8h69l27 -8l35 -35l8 -26l-8 -27l-70 -69l-53 -18l-17 -17l-26 -9h-70l-26 -9l-18 -17l-26 -9h-70l-26 -9l-70 -69l-8 -27v-35l8 -26l18 -17l17 -53l53 -17l17 -17l26 -9l26 9l18 17l26 9h140 l26 8l17 18l26 9h35l27 -9l34 -35l9 -26v-70l-9 -26l-52 -18l-17 -17l-27 -9h-69l-27 -9l-17 -17l-26 -9h-70l-26 -8l-18 -18l-26 -9h-139l-27 9l-104 105l-9 26v35l-9 26l-17 18z" />
<glyph unicode="F" horiz-adv-x="861" d="M64 471v384l9 26l17 18l9 26v244l9 27l35 35l52 17l17 17l27 9h139l26 9l18 17l26 9h244l27 -9l69 -69l9 -27v-35l-9 -26l-35 -35l-26 -8h-209l-26 -9l-18 -18l-26 -8h-70l-26 -9l-70 -70l-9 -26l9 -26l35 -35l26 -9h384l26 -9l18 -52l17 -17l9 -27v-34l-9 -27l-35 -35 l-52 -17l-17 -17l-27 -9h-314l-26 -9l-35 -35l-17 -52l-18 -18l-8 -26v-35l8 -26l18 -17l8 -27v-209l-8 -26l-35 -35l-26 -9h-35l-26 9l-35 35l-9 26v209l-9 27l-17 17z" />
<glyph unicode="G" horiz-adv-x="965" d="M64 541v140l9 26l17 17l9 27v69l9 27l17 17l9 26v35l9 26l17 18l17 52l18 18l17 52l245 244l52 18l18 17l26 9l26 -9l35 -35l9 -26v-70l-9 -26l-262 -262l-17 -52l-18 -18l-17 -52l-18 -17l-9 -27v-34l9 -27l26 -8h35l26 8l18 18l26 9h105l26 8l17 18l27 8h244l26 -8 l35 -35l9 -26v-70l-9 -26l-87 -88l-9 -26v-70l-9 -26l-17 -17l-9 -26v-35l-9 -27l-174 -174l-26 -9h-35l-26 -9l-18 -17h-17l-18 17l-26 9h-70l-26 9l-17 17l-53 18l-70 70l-17 52l-17 17l-18 53l-17 17l-9 26v70l-9 26l-17 18zM273 436l9 -26l70 -70l26 -8h105l26 8l35 35 l9 26v35l-9 27l-35 34l-26 9h-35l-26 9l-18 17l-52 18l-52 52h-18l-9 -26v-140z" />
<glyph unicode="H" d="M64 192v663l9 26l17 18l9 26v140l9 26l17 17l9 27v69l9 27l17 17l17 52l35 35l27 9h34l27 -9l17 -52l18 -18l8 -26v-35l-8 -26l-18 -17l-9 -26v-70l-8 -26l-18 -18l-9 -26v-210l9 -26l53 -17l17 -18l26 -8l26 8l18 18l26 9h35l26 8l35 35l9 26v210l8 26l18 17l9 27v104 l8 27l27 8h69l27 -8l34 -35l9 -27v-558l-9 -26l-17 -18l-9 -26v-419l-8 -26l-35 -35l-27 -9h-34l-27 9l-69 70l-9 26v175l9 26l17 17v18l-17 17l-9 26v70l-9 26l-26 9h-175l-26 -9l-35 -35l-8 -26v-279l-9 -26l-35 -35l-26 -9h-35l-26 9l-35 35z" />
<glyph unicode="I" horiz-adv-x="791" d="M64 122v35l9 26l35 35l26 9h35l26 9l70 69l8 27v523l-8 26l-35 35l-26 9h-35l-26 9l-70 70l-9 26l9 26l70 70l26 9h35l26 8l17 18l26 8h35l27 9l17 18l26 8h279l27 -8l17 -53l18 -17l8 -26v-35l-8 -26l-35 -35l-27 -9h-34l-27 -9l-17 -17l-52 -18l-18 -52l-17 -18l-9 -26 v-593l9 -26l52 -53l9 -26v-70l-9 -26l-35 -35l-26 -9h-314l-26 9l-70 70z" />
<glyph unicode="J" horiz-adv-x="861" d="M64 61v18l17 17l18 52l26 9h35l26 -9l18 -17l52 -18l17 -17l53 -17l17 -18l26 -9h35l27 9l69 70l18 52l17 18l9 26v70l9 26l17 17l9 27v523l9 26l17 18l9 26v105l9 26l34 35l27 9h35l26 -9l35 -35l8 -26v-419l-8 -26l-18 -18l-9 -26v-349l-8 -26l-18 -18l-8 -26v-35 l-9 -26l-18 -17l-17 -53l-18 -17l-17 -53l-105 -104l-26 -9h-140l-26 9l-17 17l-53 18l-17 17l-26 9h-35l-26 8l-70 70l-18 53z" />
<glyph unicode="K" horiz-adv-x="965" d="M64 227v174l9 27l17 17l9 26v664l9 26l17 17l18 53l26 8h70l26 -8l8 -27v-139l9 -26l18 -18l17 -52h18l17 17l52 18l123 122l52 17l52 53l26 8h35l27 -8l34 -35l9 -26v-35l-9 -27l-104 -104l-53 -18l-17 -17l-52 -18l-35 -35l-18 -52l-17 -17l-9 -27l9 -26l52 -52l18 -52 l331 -332l18 -52l17 -18l9 -26v-35l-9 -26l-35 -35l-26 -9h-35l-26 9l-210 209l-17 53l-175 174l-26 9l-26 -9l-35 -35l-9 -26v-349l-8 -26l-35 -35l-26 -9h-35l-26 9l-35 35l-18 52l-17 18z" />
<glyph unicode="L" horiz-adv-x="861" d="M64 192v209l9 27l17 17l9 26v245l9 26l17 17l9 26v140l9 26l17 18l9 26v70l8 26l18 17l17 53l27 8h34l27 -8l35 -35l8 -26v-140l-8 -26l-18 -18l-9 -26v-105l-8 -26l-18 -17l-9 -26v-384l9 -27l53 -17l17 -17l26 -9l26 9l18 17l26 9h175l26 -9l17 -17l26 -9h35l26 -9 l35 -35l9 -26v-70l-9 -26l-35 -35l-26 -9l-26 9l-17 18l-27 8h-209l-26 -8l-18 -18l-26 -9h-35l-26 -8l-17 -18l-27 -9h-69l-27 9l-69 70l-18 52l-17 18z" />
<glyph unicode="M" horiz-adv-x="1000" d="M64 157v175l9 26l17 17l9 26v175l9 26l17 18l9 26v139l9 27l17 17l9 26v70l8 26l18 18l9 26v35l8 26l35 35l26 9h70l26 -9l35 -35l18 -52l17 -18l18 -52l17 -18l18 -52l26 -9h70l26 9l157 157l26 9h70l26 -9l18 -52l17 -18l9 -26v-908l-9 -26l-35 -35l-26 -8h-35l-26 8 l-35 35l-9 26v70l-9 26l-17 18l-9 26v454l-8 26l-27 9h-104l-27 -9l-17 -17l-26 -9l-26 9l-18 17l-52 18l-53 52h-17l-35 -35l-9 -26v-35l-8 -26l-18 -18l-9 -26v-174l-8 -27l-18 -17l-8 -26v-140l-9 -26l-35 -35l-26 -9h-35l-26 9l-35 35z" />
<glyph unicode="N" horiz-adv-x="1035" d="M64 227v419l9 26l17 17l9 27v209l9 26l17 18l9 26v105l9 26l34 35l27 8h69l27 -8l35 -35l17 -53l52 -52l18 -52l17 -18l18 -52l52 -52l18 -53l52 -52l17 -53l70 -69l26 -9l27 9l8 26v209l9 26l17 18l9 26v105l9 26l17 17l18 53l35 35l26 8l26 -8l35 -35l17 -53l18 -17 l9 -26v-35l-9 -26l-18 -18l-8 -26v-873l-9 -26l-35 -35l-26 -8h-70l-26 8l-70 70l-17 52l-18 18l-17 52l-18 18l-17 52l-18 18l-17 52l-18 17l-17 53l-17 17l-18 53l-17 17l-18 52l-52 53l-18 52l-35 35l-26 9h-35l-26 -9l-9 -26v-419l-8 -26l-70 -70h-18l-17 17l-52 18 l-35 35z" />
<glyph unicode="O" horiz-adv-x="930" d="M64 471v280l9 26l17 17l9 26v35l9 26l17 18l18 52l17 18l17 52l140 140l26 8h70l26 -8l18 -18l26 -8h35l26 -9l17 -18l53 -17l174 -175l18 -52l17 -17l9 -27v-35l9 -26l17 -17l9 -26v-349l-9 -27l-17 -17l-18 -52l-17 -18l-18 -52l-174 -175l-26 -9h-175l-26 9l-52 53 l-53 17l-35 35l-17 52l-53 53l-17 52l-17 17l-18 53l-17 17l-18 53l-17 17zM239 471l8 -26l18 -17l17 -53l140 -139l26 -9l26 9l18 17l52 18l105 104l8 26v35l9 27l18 17l8 26v175l-8 26l-18 17l-17 53l-18 17l-17 53l-105 104l-26 9h-105l-26 -9l-35 -35l-17 -52l-18 -17 l-17 -53l-18 -17l-8 -26v-280z" />
<glyph unicode="P" d="M64 157v908l9 26l35 35l52 17l17 18l27 8h35l26 9l17 18l26 8h140l26 -8l18 -18l26 -9h35l26 -8l17 -18l53 -17l35 -35l17 -52l18 -18l8 -26v-35l9 -26l17 -18l9 -26l-9 -26l-17 -17l-9 -27v-35l-8 -26l-210 -209l-52 -18l-53 -52l-52 -17l-70 -70l-17 -53l-18 -17 l-8 -26v-70l8 -26l18 -18l8 -26v-105l-8 -26l-35 -35l-26 -8h-35l-26 8l-35 35l-9 26v35l-9 26l-17 18zM239 751l8 -27l35 -35l26 -8l27 8l87 88l52 17l18 53l17 17l9 26v70l-9 26l-26 9h-140l-26 -9l-35 -35l-17 -52l-18 -18l-8 -26v-104z" />
<glyph unicode="Q" horiz-adv-x="1070" d="M64 367v279l9 26l17 17l9 27v35l9 26l17 17l18 53l52 52l17 52l175 175l26 9h35l26 -9l18 -18l52 -17l209 -210l18 -52l17 -17l18 -53l17 -17l18 -53l17 -17l9 -26v-140l9 -26l17 -17v-18l-17 -17l-9 -27v-104l-9 -26l-17 -18l-18 -52l-17 -18l-9 -26v-105l9 -26l52 -52 l18 -53l17 -17l18 -52l52 -53l17 -52l18 -18l9 -26v-104l-9 -27l-53 -17l-17 -18l-26 -8l-26 8l-70 70l-18 53l-17 17l-18 52l-52 53l-17 52l-140 140l-52 17l-18 18l-26 8h-35l-26 9l-18 18l-26 8h-35l-26 9l-139 140l-18 52l-17 18l-18 52l-17 17zM239 367l8 -27l105 -104 l26 -9l26 9l70 69l18 53l26 9h70l26 8l70 70l8 26v35l-8 26l-18 18l-9 26v70l-8 26l-18 17l-17 53l-53 52l-17 53l-26 8h-70l-26 -8l-105 -105l-17 -53l-18 -17l-17 -52l-18 -18l-8 -26v-209z" />
<glyph unicode="R" horiz-adv-x="1210" d="M64 227v593l9 27l17 17l9 26v175l9 26l17 17l18 53l69 70l27 8h209l26 -8l18 -18l26 -9h70l26 -8l105 -105l8 -26v-105l-8 -26l-140 -140l-52 -17l-18 -18l-52 -17l-18 -18l-52 -17l-9 -26l9 -26l17 -18l18 -52l35 -35l52 -18l122 -122l53 -17l52 -53l52 -17l123 -122 l52 -18l174 -174l9 -26v-35l-9 -27l-34 -34l-27 -9l-26 9l-17 17l-53 17l-157 158l-52 17l-52 52l-53 18l-87 87l-52 18l-88 87l-52 17l-52 53l-27 8l-26 -8l-35 -35l-8 -26v-245l-9 -26l-26 -9h-35l-26 9l-35 35l-18 52l-17 18zM282 934l35 -35l26 -9l26 9l18 17l52 18 l18 52l17 18v17l-52 18l-18 17h-17l-18 -17l-52 -18l-17 -52l-18 -18v-17z" />
<glyph unicode="S" horiz-adv-x="1349" d="M64 271v17l70 70l26 9l26 -9l87 -87l53 -18l17 -17l26 -9h105l26 9l18 17l26 9h35l26 9l18 17l52 17l17 18l53 17l17 18l53 17l17 18l52 17l140 140l17 52l53 53l9 26v70l-9 26l-70 70l-26 8h-105l-26 -8l-18 -18l-26 -9h-279l-26 9l-70 70l-17 52l-18 18l-9 26v70l9 26 l18 17l17 53l70 70l52 17l53 52l52 18l17 17l53 18l17 17l53 18l17 17l26 9h35l26 9l18 17l26 9l26 -9l18 -17l52 -18l9 -26v-35l-9 -26l-70 -70l-26 -9h-35l-26 -8l-18 -18l-52 -17l-17 -18l-53 -17l-17 -18l-53 -17l-35 -35l-8 -26l8 -26l27 -9h419l26 -9l104 -105l18 -52 l17 -17l9 -27v-244l-9 -26l-17 -18l-18 -52l-87 -87l-17 -53l-35 -35l-53 -17l-52 -52l-52 -18l-18 -17l-52 -18l-18 -17l-52 -18l-17 -17l-53 -18l-17 -17l-26 -9h-35l-26 -8l-18 -18l-26 -9h-70l-26 -8l-18 -18l-26 -9h-70l-26 9l-17 18l-26 8h-35l-26 9l-18 18l-52 17 l-35 35l-18 52l-17 18l-18 52z" />
<glyph unicode="T" horiz-adv-x="1035" d="M64 1100l9 26l35 35l26 8h314l26 9l18 18h17l18 -18l26 -9h314l26 -8l35 -35l17 -53l18 -17v-17l-70 -70l-26 -9h-244l-27 -9l-8 -26v-105l-9 -26l-18 -17l-8 -26v-664l-9 -26l-35 -35l-26 -9l-26 9l-35 35l-18 52l-17 18l-9 26v384l9 26l17 18l9 26v279l-9 26l-35 35 l-26 9h-35l-26 9l-17 17l-26 9h-70l-26 9l-70 69z" />
<glyph unicode="U" horiz-adv-x="930" d="M64 541v349l9 26l17 18l9 26v70l9 26l69 70l27 9h35l26 -9l35 -35l8 -26v-175l-8 -26l-18 -17l-9 -27v-349l9 -26l18 -17l8 -27v-34l9 -27l18 -17l17 -52l52 -18l18 -17l26 -9h70l26 9l70 69l17 53l18 17l8 26v35l9 27l18 17l8 26v140l-8 26l-18 17l-9 27v69l-8 27 l-18 17l-8 26v35l-9 26l-18 18l-8 26v70l8 26l35 35l26 9l27 -9l35 -35l17 -52l17 -18l9 -26v-70l9 -26l17 -17l9 -27v-69l9 -27l17 -17l9 -26v-70l9 -26l17 -18l9 -26v-174l-9 -27l-17 -17l-9 -26v-35l-9 -26l-52 -53l-18 -52l-69 -70l-53 -17l-52 -53l-26 -8h-105l-26 8 l-18 18l-52 17l-175 175l-17 52l-17 18l-18 52l-17 17l-9 27v104l-9 26l-17 18z" />
<glyph unicode="V" horiz-adv-x="930" d="M64 960v70l9 26l35 35l26 9l26 -9l35 -35l17 -52l18 -18l17 -52l18 -18l17 -52l18 -17l8 -27v-35l9 -26l18 -17l17 -53l17 -17l18 -52l70 -70h17l70 70l9 26v35l8 26l18 17l17 53l18 17l17 53l18 17l8 26v35l9 26l18 18l17 52l18 18l17 52l35 35l26 9l26 -9l35 -35l9 -26 v-140l-9 -26l-17 -18l-18 -52l-17 -17l-18 -53l-17 -17l-9 -26v-35l-9 -26l-17 -18l-17 -52l-18 -18l-17 -52l-18 -18l-9 -26v-35l-8 -26l-18 -17l-17 -53l-18 -17l-8 -26v-314l-9 -27l-26 -8h-105l-26 8l-35 35l-9 26v70l-9 26l-17 18l-9 26v140l-8 26l-18 17l-17 53 l-18 17l-9 26v35l-8 26l-18 18l-8 26v35l-9 26l-18 18l-17 52l-18 17l-17 53l-17 17l-9 26v35l-9 27l-17 17l-18 52l-17 18z" />
<glyph unicode="W" horiz-adv-x="930" d="M64 681v244l9 26l17 18l9 26v35l9 26l35 35l26 9l26 -9l35 -35l9 -26v-454l8 -26l35 -35l26 -9l27 9l17 52l17 18l9 26v70l9 26l35 35l26 9l26 -9l105 -105l17 -52l35 -35l26 -9l27 9l17 52l18 18l8 26v384l-8 26l-18 17l-9 27l9 26l35 35l26 8l26 -8l35 -35l9 -26v-35 l9 -26l17 -18l9 -26v-663l-9 -27l-17 -17l-18 -52l-26 -9h-70l-26 9l-192 192l-26 8l-26 -8l-18 -53l-17 -17l-9 -26v-70l-9 -26l-17 -18l-18 -52l-34 -35l-27 -9h-35l-26 9l-70 70l-17 52l-17 18l-9 26v70l-9 26l-17 17l-9 26v175l-9 26l-17 18z" />
<glyph unicode="X" horiz-adv-x="896" d="M64 122v35l9 26l17 18l18 52l52 52l17 53l18 17l17 53l18 17l17 52l18 18l8 26v140l-8 26l-53 52l-17 53l-52 52l-18 52l-17 18l-9 26v70l9 26l26 9h35l26 -9l105 -105l17 -52l70 -70l26 -9h35l26 9l35 35l18 52l104 105l26 9h35l27 -9l34 -35l9 -26v-35l-9 -26l-17 -18 l-17 -52l-123 -122l-17 -52l-18 -18l-8 -26v-35l8 -26l18 -18l17 -52l18 -17l17 -53l53 -52l17 -53l52 -52l18 -52l52 -53l9 -26v-70l-9 -26l-35 -35l-26 -8l-26 8l-105 105l-17 52l-53 53l-17 52l-70 70l-26 9h-35l-26 -9l-18 -52l-17 -18l-17 -52l-18 -18l-17 -52 l-105 -105h-18l-17 18l-52 17l-35 35z" />
<glyph unicode="Y" d="M64 925v70l9 26l35 35h17l70 -70l17 -52l70 -70l26 -9h105l26 9l18 17l52 18l105 105l17 52l18 17l17 53l26 9h35l26 -9l9 -26v-105l-9 -26l-17 -18l-17 -52l-297 -297l-9 -26v-628l-9 -27l-35 -34l-26 -9l-26 9l-70 69l-8 27v663l-9 26l-53 52l-17 53l-52 52l-18 52 l-17 18z" />
<glyph unicode="Z" horiz-adv-x="1035" d="M64 52v140l9 26l17 18l18 52l17 17l18 53l17 17l9 26v35l8 27l18 17l17 52l18 18l17 52l53 53l17 52l18 17l17 53l17 17l18 53l17 17l9 26l-9 26l-26 9h-35l-26 9l-17 17l-53 18l-35 35l-8 26v70l8 26l27 9h384l26 -9l17 -18l53 -17l8 -26v-105l-8 -26l-123 -122l-17 -53 l-52 -52l-18 -52l-52 -53l-18 -52l-17 -18l-18 -52l-17 -17l-18 -53l-17 -17l-9 -26v-35l-8 -27l-18 -17l-9 -26l9 -26l52 -18l18 -17l26 -9h35l26 9l18 17l26 9h384l26 -9l35 -35l9 -26v-35l-9 -26l-35 -35l-26 -9l-26 9l-18 18l-26 8h-209l-27 -8l-17 -18l-26 -9h-70 l-26 -8l-18 -18l-26 -9h-35l-26 -8l-17 -18l-27 -8h-35l-26 -9l-17 -18l-26 -8h-35l-26 8l-70 70z" />
<glyph unicode="a" d="M64 52v70l9 26l17 18l18 52l69 70l53 17l17 18l26 9h175l26 8l35 35l9 26v280l-9 26l-35 35l-26 9l-26 -9l-87 -87l-27 -9h-69l-27 9l-8 26v70l8 26l105 104l52 18l53 52l26 9h105l26 -9l17 -17l53 -18l17 -52l18 -17l8 -27v-69l9 -27l18 -17l8 -26v-384l9 -26l17 -18 l9 -26v-140l-9 -26l-174 -174l-52 -18l-18 -17l-26 -9h-70l-26 -9l-18 -17l-26 -9h-35l-26 9l-17 17l-53 18l-104 104l-18 53l-17 17zM273 87l9 -26l35 -35l26 -9h70l26 9l35 35l9 26l-9 26l-35 35l-26 9h-70l-26 -9l-35 -35z" />
<glyph unicode="b" horiz-adv-x="686" d="M64 157v873l9 26l17 17l9 27v69l9 27l26 8h70l26 -8l9 -27v-279l8 -26l35 -35l26 -9h105l26 -8l18 -18l52 -17l70 -70l17 -52l18 -18l9 -26v-140l-9 -26l-18 -17l-8 -27v-34l-9 -27l-52 -52l-18 -52l-157 -157l-17 -53l-53 -17l-17 -18l-26 -8h-35l-27 8l-69 70l-18 52 l-17 18zM204 367l8 -27l18 -17l17 -52l26 -9l27 9l69 69l18 53l17 17l18 53l17 17l9 26v35l-9 26l-35 35l-26 9h-70l-26 -9l-70 -70l-8 -26v-139z" />
<glyph unicode="c" horiz-adv-x="756" d="M64 157v210l9 26l17 17l9 26v35l9 26l52 53l17 52l210 210l52 17l18 18h17l70 -70l9 -26l-9 -27l-70 -69l-52 -18l-175 -174l-17 -53l-18 -17l-8 -26v-140l8 -26l18 -18l17 -52l53 -18l17 -17l26 -9h70l26 9l18 17l52 18l18 17l52 18l52 52h18l35 -35l8 -26l-8 -26 l-18 -18l-17 -52l-105 -105l-52 -17l-18 -18l-26 -8h-175l-26 8l-17 18l-53 17l-34 35l-18 53l-17 17l-18 52l-17 18z" />
<glyph unicode="d" d="M64 332v174l9 26l17 18l18 52l139 140l53 17l52 53l52 17l70 70l18 52l17 18l9 26v174l9 27l34 35l27 8l26 -8l35 -35l17 -53l18 -17v-18l-18 -17l-9 -26v-175l9 -26l18 -17l8 -27v-104l-8 -27l-18 -17l-9 -26v-35l9 -26l18 -18l8 -26v-140l9 -26l18 -17l8 -26v-35l9 -26 l17 -18v-17l-17 -18l-9 -26v-35l-8 -26l-35 -35l-53 -17l-17 -18l-26 -9h-35l-26 -8l-18 -18l-26 -9h-105l-26 9l-17 18l-53 17l-17 18l-53 17l-104 105l-9 26v35l-9 26l-17 17zM204 401l8 -26l18 -17l17 -53l105 -104l26 -9h70l26 9l35 35l9 26v279l-9 26l-17 18l-18 52 l-26 9h-70l-26 -9l-105 -105l-8 -26v-35l-9 -26l-18 -17z" />
<glyph unicode="e" horiz-adv-x="791" d="M64 157v244l9 27l17 17l9 26v35l9 26l52 53l17 52l140 140l52 17l18 18l26 8h105l26 -8l17 -18l53 -17l70 -70l17 -52l18 -18l8 -26v-105l-8 -26l-53 -17l-17 -18l-26 -9h-245l-26 -8l-17 -18l-53 -17l-70 -70l-8 -26v-70l8 -26l18 -18l17 -52l35 -35l53 -17l17 -18 l26 -9h35l26 9l18 18l26 8h35l26 9l52 52l53 18l17 17l26 9l27 -9l8 -26v-70l-8 -26l-105 -105l-53 -17l-52 -52l-52 -18l-18 -17l-26 -9h-70l-26 9l-17 17l-53 18l-139 139l-9 26v35l-9 26l-17 18z" />
<glyph unicode="f" horiz-adv-x="930" d="M64 541v70l9 26l26 9h35l26 9l17 17l27 9h69l27 8l17 53l18 17l8 26v35l9 27l17 17l18 52l17 18l18 52l17 18l18 52l174 175l26 8h105l26 -8l35 -35l9 -27l-9 -26l-35 -35l-26 -8h-35l-26 -9l-52 -52l-53 -18l-17 -52l-52 -53l-18 -52l-17 -17l-9 -27v-69l9 -27l26 -8 h279l26 -9l35 -35l9 -26v-35l-9 -26l-35 -35l-26 -9h-174l-27 -9l-17 -17l-52 -18l-70 -69l-9 -27v-34l9 -27l17 -17l9 -26v-35l9 -26l17 -18l9 -26v-70l-9 -26l-35 -35l-26 -9l-26 9l-35 35l-9 26v35l-9 26l-17 18l-9 26v105l-8 26l-18 17l-17 53l-27 8h-69l-27 9l-17 18 l-52 17l-35 35z" />
<glyph unicode="g" d="M64 -262l9 26l17 18l18 52l17 18l18 52l87 87l9 26v35l-9 27l-53 17l-34 35l-18 52l-17 18l-18 52l-17 18l-9 26v104l9 27l17 17l9 26v35l9 26l17 18l18 52l122 122l17 53l18 17l8 26v70l9 26l18 18l17 52l52 18l53 52l52 17l18 18l52 17l52 53l26 8h35l27 -8l8 -26v-35 l-8 -27l-158 -157l-8 -26v-139l8 -27l18 -17l9 -26v-35l8 -26l18 -18l9 -26v-35l8 -26l18 -18l8 -26l-8 -26l-18 -17l-8 -27v-34l-9 -27l-18 -17l-17 -52l-18 -18l-17 -52l-17 -18l-9 -26v-70l9 -26l17 -17l17 -53l88 -87l17 -52l53 -53l17 -52l17 -18l9 -26v-70l-9 -26 l-17 -17l-17 -53l-53 -17l-17 -17l-26 -9h-105l-26 -9l-18 -17l-26 -9h-105l-26 -9l-17 -17l-27 -9h-69l-27 9l-104 104l-9 27v174zM239 367l8 -27l35 -35l26 -8h70l26 8l70 70l18 53l17 17l9 26v35l-9 26l-35 35l-26 9h-70l-26 -9l-70 -70l-17 -52l-18 -17l-8 -27v-34z M273 -297v-35l9 -26l35 -35l26 -8h35l26 8l18 18l26 8h35l26 9l35 35l9 26v35l-9 26l-70 70l-26 9h-70l-26 -9l-35 -35l-17 -52l-18 -18z" />
<glyph unicode="h" horiz-adv-x="791" d="M64 262v244l9 26l17 18l9 26v454l9 26l17 17l9 27v35l9 26l34 35l27 8l26 -8l35 -35l8 -26v-280l-8 -26l-18 -17l-8 -27v-279l8 -26l26 -9l27 9l17 17l52 18l18 52l70 70l52 18l18 17h17l17 -17l53 -18l17 -52l18 -18l17 -52l18 -18l8 -26v-70l9 -26l18 -17l8 -26v-210 l-8 -26l-35 -35l-27 -9h-34l-27 9l-35 35l-8 26v35l-9 26l-17 18l-9 26v70l-9 26l-35 35l-26 9l-26 -9l-70 -70l-17 -52l-18 -18l-17 -52l-35 -35l-26 -9h-70l-26 9l-35 35l-18 52l-17 18z" />
<glyph unicode="i" horiz-adv-x="372" d="M64 1100v69l9 27l35 35l26 8l26 -8l70 -70l9 -26v-35l-9 -27l-35 -34l-26 -9h-35l-26 9l-35 34zM99 17v524l9 26l17 18l9 26v105l9 26l34 35l27 8h35l26 -8l35 -35l8 -26v-140l-8 -26l-18 -18l-9 -26v-523l-8 -27l-35 -35l-26 -8h-35l-26 8l-18 53l-17 17z" />
<glyph unicode="j" horiz-adv-x="965" d="M64 -436l9 26l26 9h70l26 -9l17 -18l53 -17l17 -18l26 -8l27 8l17 18l26 9h70l26 8l18 18l52 17l105 105l17 52l18 18l17 52l18 18l8 26v174l9 27l17 17l9 26v245l-9 26l-17 17l-9 26v140l-8 26l-18 18l-9 26l9 26l18 17l17 53l26 9l26 -9l70 -70l9 -26v-140l9 -26 l17 -17l9 -27v-384l-9 -26l-17 -17l-9 -26v-140l-9 -26l-17 -18l-9 -26v-35l-9 -26l-17 -17l-18 -53l-174 -174l-53 -18l-17 -17l-52 -18l-18 -17l-26 -9h-175l-26 9l-17 17l-53 18l-17 17l-52 18l-18 52l-17 17zM692 1135v34l9 27l35 35l26 8l26 -8l35 -35l18 -53l17 -17 v-18l-35 -35l-26 -8h-35l-26 8l-35 35z" />
<glyph unicode="k" horiz-adv-x="896" d="M64 87v419l9 26l17 18l9 26v140l-9 26l-17 17v18l17 17l9 26v384l9 27l35 34l26 9h35l26 -9l35 -34l8 -27v-349l-8 -26l-18 -17l-8 -27v-104l8 -26l35 -35l26 -9h35l26 9l18 17l26 9h35l26 9l18 17l52 17l17 18l53 17l17 18l26 9h35l27 -9l8 -26v-35l-8 -26l-53 -18 l-17 -17l-53 -18l-17 -17l-52 -18l-18 -17l-52 -18l-70 -69l-9 -27v-35l9 -26l140 -139l52 -18l87 -87l53 -18l104 -104l9 -26v-70l-9 -26l-26 -9h-35l-26 9l-17 17l-53 17l-122 123l-52 17l-123 122l-26 9h-104l-27 -9l-8 -26v-105l-9 -26l-35 -35h-17l-70 70z" />
<glyph unicode="l" horiz-adv-x="337" d="M64 87v245l9 26l17 17l9 26v524l9 26l17 18l18 52l34 35h18l70 -70l8 -26v-419l-8 -26l-18 -18l-8 -26v-454l-9 -26l-35 -35l-26 -8l-26 8l-35 35l-18 53l-17 17z" />
<glyph unicode="m" horiz-adv-x="1070" d="M64 157v175l9 26l17 17l9 26v210l9 26l26 9h35l26 -9l70 -70l17 -52l26 -9l27 9l122 122l26 9l26 -9l70 -70l9 -26v-35l8 -26l35 -35l26 -9h35l27 -8l8 -27v-34l-8 -27l-18 -17l-17 -52l-18 -18l-17 -52l-35 -35l-26 -9h-70l-26 9l-18 52l-17 18l-9 26v105l-9 26l-35 35 h-17l-35 -35l-17 -53l-18 -17l-9 -26v-70l-8 -26l-18 -18l-17 -52l-70 -70l-26 -9l-26 9l-70 70zM762 471v70l9 26l70 70l26 9l26 -9l70 -70l9 -26v-70l8 -26l18 -17l9 -27v-279l-9 -26l-35 -35h-18l-69 70l-9 26v140l-9 26l-17 17l-18 53l-52 52z" />
<glyph unicode="n" horiz-adv-x="791" d="M64 52v559l9 26l17 18l18 52l35 35h17l17 -18l53 -17l17 -18l26 -8h35l27 8l17 18l52 17l18 18l52 17l18 18l26 8h105l26 -8l17 -53l18 -17l8 -26v-140l9 -26l18 -18l8 -26v-419l-8 -26l-35 -35l-27 -8l-26 8l-70 70l-8 26v280l8 26l18 17l9 26v35l-9 26l-18 18l-8 26v35 l-9 26l-35 35l-26 9l-26 -9l-53 -52l-52 -18l-35 -35l-17 -52l-18 -17l-9 -27v-69l-8 -27l-18 -17l-8 -26v-210l-9 -26l-70 -70h-17l-18 18l-52 17z" />
<glyph unicode="o" horiz-adv-x="721" d="M64 297v104l9 27l17 17l9 26v70l9 26l17 18l9 26v70l9 26l104 105l53 17l17 18l26 8l26 -8l18 -18l52 -17l53 -53l52 -17l70 -70l17 -52l18 -18l8 -26v-209l-8 -27l-53 -52l-17 -52l-18 -18l-17 -52l-70 -70l-52 -17l-18 -18l-26 -9h-105l-26 9l-17 18l-53 17l-34 35 l-18 52l-17 18l-18 52l-17 18zM169 401l8 -26l18 -17l9 -26v-35l8 -26l35 -35l26 -9h70l26 9l18 17l52 18l35 34l18 53l17 17l18 53l17 17l9 26v70l-9 26l-17 18l-18 52l-26 9h-35l-26 9l-18 17h-17l-18 -17l-26 -9h-35l-26 -9l-70 -70l-8 -26v-35l-9 -26l-18 -17l-8 -27 v-35z" />
<glyph unicode="p" horiz-adv-x="896" d="M64 506v70l9 26l139 140l27 9h69l27 -9l17 -18l26 -8h35l26 -9l18 -18l26 -8h35l26 -9l17 -17l53 -18l52 -52l53 -18l17 -52l52 -52l18 -53l17 -17l9 -26v-105l-9 -26l-17 -18l-18 -52l-104 -105l-53 -17l-52 -53l-26 -8h-35l-26 -9l-18 -18l-52 -17l-18 -18l-52 -17 l-35 -35l-17 -52l-18 -18l-9 -26v-105l9 -26l18 -17l8 -26v-70l9 -26l18 -18l8 -26v-35l-8 -26l-18 -18l-70 -17h-70l-8 26v314l-9 26l-17 18l-9 26v35l-9 26l-17 18l-9 26v139l9 27l17 17l9 26v314l-9 27l-52 52zM273 157l9 -26l70 -70l26 -9l26 9l175 175l17 52l18 17 l9 27v69l-9 27l-18 17l-17 52l-52 18l-18 17l-26 9h-70l-26 -9l-70 -69l-9 -27v-104l-8 -27l-18 -17l-9 -26v-105z" />
<glyph unicode="q" horiz-adv-x="1140" d="M64 157v70l9 26l17 18l18 52l192 192l17 52l105 105l26 9h35l26 8l18 18l26 9h35l26 -9l17 -18l53 -17l69 -70l9 -26v-733l9 -26l70 -70l26 -9h105l26 -9l17 -17l53 -17l8 -27v-35l-8 -26l-35 -35l-26 -8h-140l-26 -9l-18 -52l-17 -18l-9 -26v-35l-9 -26l-35 -35l-26 -9 h-35l-26 9l-35 35l-17 52l-18 18l-17 52l-52 17l-18 18l-26 9h-70l-26 8l-35 35l-9 26v70l9 26l35 35l26 9h105l26 9l35 35l9 26v70l-9 26l-35 35l-26 9h-35l-26 -9l-18 -18l-52 -17l-18 -18l-26 -8h-104l-27 8l-104 105l-9 26v35l-9 26l-17 18zM204 192l8 -26l18 -18 l17 -52l26 -9h35l27 -8l17 -18h17l18 18l26 8h35l26 9l35 35l18 52l17 18l9 26v70l8 26l18 17v18l-18 17l-8 26v35l-9 27l-35 34l-26 9l-26 -9l-18 -17l-26 -9h-35l-26 -8l-70 -70l-17 -53l-18 -17l-8 -26v-35l-9 -26l-18 -18z" />
<glyph unicode="r" horiz-adv-x="861" d="M64 122v384l9 26l17 18l9 26v105l-9 26l-17 17l-9 27l9 26l17 17l18 53l35 34h17l17 -17l27 -9h35l26 -8l17 -18h18l17 18l26 8h210l26 9l17 17l27 9h69l27 -9l17 -17l52 -17l9 -27v-69l-9 -27l-26 -8h-314l-26 -9l-105 -105l-17 -52l-18 -18l-9 -26v-35l-8 -26l-18 -17 l-8 -27v-279l-9 -26l-35 -35l-26 -9h-35l-26 9l-35 35z" />
<glyph unicode="s" horiz-adv-x="930" d="M64 52l9 27l35 34h17l18 -17l26 -9h174l26 9l18 17l52 18l18 17l52 18l18 17l52 18l105 104l8 27l-8 26l-70 70l-26 8h-140l-26 9l-18 18l-26 8h-35l-26 9l-17 17l-53 18l-8 26v140l8 26l70 70l52 17l18 18l52 17l18 18l52 17l18 17l26 9h104l27 -9l8 -26v-70l-8 -26 l-27 -8h-34l-27 -9l-17 -18l-52 -17l-9 -26l9 -26l52 -18l17 -17l53 -18l17 -17l53 -18l17 -17l52 -18l18 -52l17 -17l18 -53l17 -17l9 -26v-105l-9 -26l-17 -18l-18 -52l-70 -70l-52 -17l-17 -18l-53 -17l-17 -18l-53 -17l-17 -18l-26 -8h-105l-26 -9l-18 -18l-26 -8h-174 l-26 8l-70 70z" />
<glyph unicode="t" horiz-adv-x="965" d="M64 716l9 26l35 35l26 8h105l26 9l17 18l53 17l17 52l17 18l9 26v210l9 26l35 35l26 8h35l26 -8l35 -35l9 -26v-70l-9 -26l-17 -18l-9 -26v-105l9 -26l34 -35l27 -9h35l26 -8l17 -18l53 -17l17 -53l17 -17v-18l-69 -69l-27 -9h-69l-27 -9l-17 -17l-52 -18l-9 -26v-279 l9 -26l17 -18l18 -52l34 -35l27 -9h104l27 9l17 17l52 18l53 52l26 9l26 -9l9 -26v-70l-9 -26l-105 -105l-26 -8h-35l-26 -9l-17 -18l-27 -8h-69l-27 8l-17 18l-52 17l-105 105l-9 26v35l-9 26l-17 18l-9 26v244l-8 26l-35 35l-53 18l-17 17l-26 9h-35l-26 9l-35 35l-18 52 l-17 17z" />
<glyph unicode="u" horiz-adv-x="791" d="M64 297v454l9 26l70 70h17l35 -35l17 -53l18 -17l9 -26l-9 -27l-18 -17l-8 -26v-349l8 -26l70 -70l26 -9h70l26 9l70 70l9 26v35l9 26l17 17l9 26v245l9 26l17 17l17 53l27 9h35l26 -9l17 -53l18 -17l17 -52l18 -18l8 -26v-70l-8 -26l-18 -17l-9 -27v-139l9 -26l18 -18 l8 -26v-210l-8 -26l-27 -8h-35l-26 8l-122 122h-17l-123 -122l-26 -8h-35l-26 8l-174 175l-9 26v35l-9 26l-17 18z" />
<glyph unicode="v" horiz-adv-x="930" d="M64 681v70l9 26l26 8h70l26 -8l35 -35l9 -26v-35l8 -26l18 -18l8 -26v-35l9 -26l18 -18l8 -26v-35l9 -26l18 -17l8 -27v-34l9 -27l70 -69l26 -9l26 9l210 209l17 52l18 18l17 52l35 35l26 9l26 -9l35 -35v-17l-17 -18l-18 -52l-52 -52l-18 -53l-87 -87l-17 -52l-18 -18 l-17 -52l-18 -18l-17 -52l-18 -18l-17 -52l-70 -70l-26 -8l-26 8l-70 70l-17 52l-18 18l-17 52l-18 18l-9 26v35l-8 26l-18 17l-17 53l-18 17l-17 53l-18 17l-17 52l-17 18l-18 52l-17 18l-18 52l-17 18z" />
<glyph unicode="w" horiz-adv-x="1000" d="M64 367v34l9 27l17 17l9 26v175l9 26l69 70l27 9l26 -9l35 -35l8 -26v-280l9 -26h18l35 35l17 53l35 34l26 9h35l26 -9l70 -69l17 -53l105 -104l26 -9l27 9l34 34l9 27v104l9 27l17 17v17l-17 18l-9 26v140l9 26l26 9l26 -9l35 -35l18 -52l17 -18l9 -26v-70l9 -26l17 -17 l9 -27l-9 -26l-17 -17l-9 -26v-105l-9 -26l-17 -18l-9 -26v-35l-9 -26l-70 -70l-26 -9h-70l-26 9l-17 18l-53 17l-87 87l-26 9h-35l-26 -9l-35 -35l-18 -52l-34 -35l-27 -9h-104l-27 9l-17 52l-17 18l-18 52l-17 18l-9 26v70l-9 26l-17 17z" />
<glyph unicode="x" d="M64 122v70l9 26l17 18l18 52l87 87l17 53l18 17l9 26l-9 26l-122 123l-18 52l-17 17l-9 27v35l9 26l26 8h70l26 -8l122 -122l26 -9h35l26 9l18 17l52 17l18 53l69 70l27 8h69l27 -8l35 -35l8 -26v-35l-8 -27l-88 -87l-17 -52l-18 -18l-8 -26v-35l8 -26l157 -157l9 -26 v-70l-9 -26l-26 -9h-35l-26 9l-17 17l-53 18l-87 87l-52 17l-18 18h-17l-18 -18l-52 -17l-70 -70l-17 -52l-53 -53l-17 -52l-26 -9h-35l-26 9l-35 35z" />
<glyph unicode="y" horiz-adv-x="930" d="M64 611v35l9 26l26 9h70l26 -9l70 -70l17 -52l87 -87l18 -53l70 -70l52 -17l18 -18l26 -8l26 8l35 35l9 27v34l8 27l18 17l8 26v70l9 26l18 18l8 26v35l9 26l35 35l26 9h35l26 -9l35 -35l9 -26v-70l-9 -26l-17 -18l-9 -26v-35l-9 -26l-17 -17l-9 -27v-34l-9 -27l-17 -17 l-18 -52l-17 -18l-9 -26v-35l-8 -26l-18 -18l-9 -26v-35l-8 -26l-18 -17l-17 -53l-18 -17l-17 -53l-53 -52l-17 -52l-87 -88l-18 -52l-87 -87l-17 -53l-18 -17l-17 -52l-70 -70l-26 -9l-27 9l-34 35l-9 26v105l9 26l52 52l17 53l88 87l17 52l52 53l18 52l52 52l9 26v70 l-9 26l-17 18l-18 52l-192 192l-17 53l-87 87l-18 52l-17 18z" />
<glyph unicode="z" horiz-adv-x="930" d="M64 689v18l70 70l26 8h244l27 9l17 18l26 8h105l26 -8l35 -35l9 -26v-140l-9 -26l-87 -88l-18 -52l-87 -87l-17 -53l-18 -17l-17 -52l-18 -18l-9 -26v-35l9 -26l35 -35l26 -9h35l26 -8l18 -18l26 -9h105l26 -8l17 -18l27 -9h69l27 -8l34 -35l9 -26v-70l-9 -26l-34 -35 h-18l-17 17l-27 9h-139l-26 9l-18 17l-26 9h-105l-26 9l-17 17l-27 9h-139l-26 8l-35 35l-18 53l-17 17l-9 26v105l9 26l122 122l17 53l53 52l9 26v35l8 26l18 18l8 26v35l-8 26l-26 9h-210l-26 9l-18 52z" />
<glyph unicode="&#xa3;" horiz-adv-x="1280" d="M64 157l9 26l70 70l26 9h70l26 9l35 34l8 27v35l9 26l18 17l8 26v70l-8 26l-53 53l-17 52l-18 18v17l18 17l17 53l53 17l17 18l52 17l18 18l52 17l18 52l52 53l17 52l18 18l17 52l18 17l17 53l18 17l17 53l35 35l26 8h35l26 9l18 17h17l18 -17l52 -17l105 -105l9 -26v-35 l-9 -26l-35 -35l-26 -9h-140l-26 -9l-70 -70l-17 -52l-18 -17l-9 -27v-35l9 -26l53 -52l8 -26v-35l-8 -26l-35 -35l-27 -9h-69l-27 -9l-69 -70l-9 -26v-35l-9 -26l-17 -17l-9 -26v-105l9 -26l35 -35l52 -18l17 -17l27 -9h35l26 -9l17 -17l26 -9h419l26 -9l70 -69l9 -27v-34 l-9 -27l-35 -35l-26 -8h-314l-26 8l-18 18l-26 9h-139l-27 8l-17 18l-26 9h-314l-27 8l-139 140z" />
<glyph unicode="&#xaa;" d="M64 52v70l9 26l17 18l18 52l69 70l53 17l17 18l26 9h175l26 8l35 35l9 26v280l-9 26l-35 35l-26 9l-26 -9l-87 -87l-27 -9h-69l-27 9l-8 26v70l8 26l105 104l52 18l53 52l26 9h105l26 -9l17 -17l53 -18l17 -52l18 -17l8 -27v-69l9 -27l18 -17l8 -26v-384l9 -26l17 -18 l9 -26v-140l-9 -26l-174 -174l-52 -18l-18 -17l-26 -9h-70l-26 -9l-18 -17l-26 -9h-35l-26 9l-17 17l-53 18l-104 104l-18 53l-17 17zM273 87l9 -26l35 -35l26 -9h70l26 9l35 35l9 26l-9 26l-35 35l-26 9h-70l-26 -9l-35 -35z" />
<glyph unicode="&#xad;" d="M64 785l9 27l70 69l26 9l26 -9l17 -17l27 -9h104l26 -8l18 -18l26 -9h140l26 9l17 18l27 8h69l27 -8l34 -35l9 -27v-34l-9 -27l-34 -35l-27 -8h-174l-26 -9l-18 -17l-26 -9h-244l-27 9l-104 104z" />
<glyph unicode="&#xb2;" horiz-adv-x="896" d="M64 -17v34l9 27l17 17l18 52l17 18l18 52l17 18l17 52l297 297l18 52l87 87l9 27v35l8 26l18 17l9 26l-9 27l-35 34l-26 9h-70l-26 -9l-53 -52l-26 -9h-70l-26 9l-9 26v70l9 26l35 35l52 18l18 17l26 9h35l26 9l18 17l26 9h105l26 -9l104 -105l9 -26v-209l-9 -27l-17 -17 l-17 -52l-53 -53l-17 -52l-332 -332l-9 -26v-35l9 -26l35 -35l26 -9h384l26 -8l35 -35l9 -26v-70l-9 -26l-26 -9h-349l-26 -9l-18 -17l-26 -9h-209l-26 9l-35 35l-18 52l-17 17z" />
<glyph unicode="&#xb3;" d="M64 -17l9 26l26 8h244l26 9l18 18l52 17l70 70l18 52l52 53l9 26v139l-9 27l-35 35l-26 8h-210l-26 9l-35 35l-8 26v105l8 26l122 122l9 26l-9 27l-34 34l-53 18l-35 35l-8 26v70l8 26l26 9h280l26 -9l17 -17l53 -18l17 -52l18 -18l8 -26l-8 -26l-157 -157l-9 -26l9 -27 l69 -69l53 -18l70 -70l17 -52l17 -17l9 -27v-209l-9 -26l-17 -18l-17 -52l-105 -105l-53 -17l-17 -18l-52 -17l-18 -18l-52 -17l-18 -18l-52 -17l-17 -17l-27 -9h-139l-26 9l-70 69z" />
<glyph unicode="&#xb9;" horiz-adv-x="616" d="M64 -17v34l9 27l35 35l52 17l70 70l9 26v698l8 26l18 18l17 52l35 35l26 9l26 -9l35 -35l9 -26v-140l-9 -26l-17 -17l-9 -26v-140l-9 -26l-17 -18l-9 -26v-349l9 -26l70 -70l26 -9h70l26 -8l9 -27v-69l-9 -27l-35 -35l-52 -17l-18 -17l-26 -9h-35l-26 -9l-17 -17l-27 -9 h-69l-27 9l-17 17l-26 9h-35l-26 9l-18 52l-17 17z" />
<glyph unicode="&#xba;" horiz-adv-x="721" d="M64 297v104l9 27l17 17l9 26v70l9 26l17 18l9 26v70l9 26l104 105l53 17l17 18l26 8l26 -8l18 -18l52 -17l53 -53l52 -17l70 -70l17 -52l18 -18l8 -26v-209l-8 -27l-53 -52l-17 -52l-18 -18l-17 -52l-70 -70l-52 -17l-18 -18l-26 -9h-105l-26 9l-17 18l-53 17l-34 35 l-18 52l-17 18l-18 52l-17 18zM169 401l8 -26l18 -17l9 -26v-35l8 -26l35 -35l26 -9h70l26 9l18 17l52 18l35 34l18 53l17 17l18 53l17 17l9 26v70l-9 26l-17 18l-18 52l-26 9h-35l-26 9l-18 17h-17l-18 -17l-26 -9h-35l-26 -9l-70 -70l-8 -26v-35l-9 -26l-18 -17l-8 -27 v-35z" />
<glyph unicode="&#x152;" horiz-adv-x="1826" d="M64 471v280l9 26l17 17l9 26v35l9 26l17 18l18 52l17 18l17 52l140 140l26 8h70l26 -8l18 -18l26 -8h35l26 -9l17 -18l53 -17l174 -175l18 -52l17 -17l9 -27v-35l9 -26l17 -17l9 -26v-349l-9 -27l-17 -17l-18 -52l-17 -18l-18 -52l-174 -175l-26 -9h-175l-26 9l-52 53 l-53 17l-35 35l-17 52l-53 53l-17 52l-17 17l-18 53l-17 17l-18 53l-17 17zM239 471l8 -26l18 -17l17 -53l140 -139l26 -9l26 9l18 17l52 18l105 104l8 26v35l9 27l18 17l8 26v175l-8 26l-18 17l-17 53l-18 17l-17 53l-105 104l-26 9h-105l-26 -9l-35 -35l-17 -52l-18 -17 l-17 -53l-18 -17l-8 -26v-280zM995 297v384l9 26l17 17l9 27v244l9 26l17 18v17l-17 17l-9 27v69l9 27l17 17l17 52l35 35l53 18l17 17l26 9h35l26 -9l18 -17h17l18 17l26 9h349l26 -9l35 -35l9 -26l-9 -26l-70 -70l-26 -9h-35l-26 -8l-17 -18l-27 -8h-139l-26 -9l-18 -18 l-26 -8h-35l-26 -9l-35 -35l-9 -26v-35l-8 -26l-18 -18l-9 -26v-105l9 -26l35 -35l26 -8h175l26 8l17 18l27 8h69l27 -8l34 -35l9 -26l-9 -27l-69 -69l-53 -18l-17 -17l-26 -9h-70l-26 -9l-18 -17l-26 -9h-70l-26 -9l-70 -69l-9 -27v-35l9 -26l18 -17l17 -53l52 -17l18 -17 l26 -9l26 9l18 17l26 9h140l26 8l17 18l26 9h35l26 -9l35 -35l9 -26v-70l-9 -26l-52 -18l-17 -17l-27 -9h-69l-27 -9l-17 -17l-26 -9h-70l-26 -8l-18 -18l-26 -9h-140l-26 9l-104 105l-9 26v35l-9 26l-17 18z" />
<glyph unicode="&#x153;" horiz-adv-x="1512" d="M64 297v104l9 27l17 17l9 26v70l9 26l17 18l9 26v70l9 26l104 105l53 17l17 18l26 8l26 -8l18 -18l52 -17l53 -53l52 -17l70 -70l17 -52l18 -18l8 -26v-209l-8 -27l-53 -52l-17 -52l-18 -18l-17 -52l-70 -70l-52 -17l-18 -18l-26 -9h-105l-26 9l-17 18l-53 17l-34 35 l-18 52l-17 18l-18 52l-17 18zM169 401l8 -26l18 -17l9 -26v-35l8 -26l35 -35l26 -9h70l26 9l18 17l52 18l35 34l18 53l17 17l18 53l17 17l9 26v70l-9 26l-17 18l-18 52l-26 9h-35l-26 9l-18 17h-17l-18 -17l-26 -9h-35l-26 -9l-70 -70l-8 -26v-35l-9 -26l-18 -17l-8 -27 v-35zM785 157v244l9 27l18 17l8 26v35l9 26l52 53l18 52l140 140l52 17l17 18l27 8h104l26 -8l18 -18l52 -17l70 -70l18 -52l17 -18l9 -26v-105l-9 -26l-52 -17l-18 -18l-26 -9h-244l-27 -8l-17 -18l-52 -17l-70 -70l-9 -26v-70l9 -26l17 -18l18 -52l35 -35l52 -17l17 -18 l27 -9h35l26 9l17 18l26 8h35l26 9l53 52l52 18l18 17l26 9l26 -9l9 -26v-70l-9 -26l-105 -105l-52 -17l-52 -52l-53 -18l-17 -17l-26 -9h-70l-26 9l-18 17l-52 18l-140 139l-9 26v35l-8 26l-18 18z" />
<glyph unicode="&#x2013;" horiz-adv-x="1024" d="M64 646v244h896v-244h-896z" />
<glyph unicode="&#x2014;" horiz-adv-x="2048" d="M64 646v244h1920v-244h-1920z" />
<glyph unicode="&#x2019;" horiz-adv-x="302" d="M64 1135v139l9 26l35 35l26 9l26 -9l70 -70l9 -26v-209l-9 -26l-35 -35l-26 -9l-26 9l-35 35l-9 26v35l-9 26l-17 17z" />
<glyph unicode="&#x201c;" horiz-adv-x="581" d="M64 1239l9 26l17 18l18 52l26 9h70l26 -9l17 -52l18 -18l8 -26v-35l9 -26l18 -17l17 -53l18 -17l8 -26v-35l-8 -26l-70 -70h-18l-17 17l-53 18l-34 35l-18 52l-17 17l-9 27v69l-9 27l-17 17zM273 1344l9 26l35 35l26 9l26 -9l105 -105l18 -52l17 -17l9 -27v-174l-9 -26 l-26 -9h-35l-26 9l-18 52l-17 17l-18 53l-17 17l-9 26v35l-8 27l-18 17l-17 52l-18 18z" />
<glyph unicode="&#x201d;" horiz-adv-x="581" d="M64 1239l9 26l17 18l18 52l26 9h70l26 -9l17 -52l18 -18l8 -26v-35l9 -26l18 -17l17 -53l18 -17l8 -26v-35l-8 -26l-70 -70h-18l-17 17l-53 18l-34 35l-18 52l-17 17l-9 27v69l-9 27l-17 17zM273 1344l9 26l35 35l26 9l26 -9l105 -105l18 -52l17 -17l9 -27v-174l-9 -26 l-26 -9h-35l-26 9l-18 52l-17 17l-18 53l-17 17l-9 26v35l-8 27l-18 17l-17 52l-18 18z" />
<glyph unicode="&#x2026;" horiz-adv-x="1012" d="M64 17v140l9 26l17 18l18 52l26 9h70l26 -9l35 -35l8 -26v-105l-8 -26l-18 -17l-17 -53l-35 -35l-26 -8h-35l-26 8l-35 35zM401 17v140l9 26l18 18l17 52l26 9h70l26 -9l35 -35l9 -26v-105l-9 -26l-17 -17l-18 -53l-35 -35l-26 -8h-35l-26 8l-35 35zM739 17v140l9 26 l17 18l18 52l26 9h70l26 -9l35 -35l8 -26v-105l-8 -26l-18 -17l-17 -53l-35 -35l-26 -8h-35l-26 8l-35 35z" />
<glyph unicode="&#x2122;" horiz-adv-x="2036" d="M64 1100l9 26l35 35l26 8h314l26 9l18 18h17l18 -18l26 -9h314l26 -8l35 -35l17 -53l18 -17v-17l-70 -70l-26 -9h-244l-27 -9l-8 -26v-105l-9 -26l-18 -17l-8 -26v-664l-9 -26l-35 -35l-26 -9l-26 9l-35 35l-18 52l-17 18l-9 26v384l9 26l17 18l9 26v279l-9 26l-35 35 l-26 9h-35l-26 9l-17 17l-26 9h-70l-26 9l-70 69zM1100 157v175l8 26l18 17l9 26v175l8 26l18 18l8 26v139l9 27l18 17l8 26v70l9 26l18 18l8 26v35l9 26l35 35l26 9h70l26 -9l35 -35l17 -52l18 -18l17 -52l18 -18l17 -52l26 -9h70l26 9l158 157l26 9h70l26 -9l17 -52 l18 -18l8 -26v-908l-8 -26l-35 -35l-26 -8h-35l-27 8l-34 35l-9 26v70l-9 26l-17 18l-9 26v454l-9 26l-26 9h-105l-26 -9l-17 -17l-27 -9l-26 9l-17 17l-53 18l-52 52h-17l-35 -35l-9 -26v-35l-9 -26l-17 -18l-9 -26v-174l-9 -27l-17 -17l-9 -26v-140l-9 -26l-34 -35l-27 -9 h-35l-26 9l-35 35z" />
<glyph unicode="&#xe000;" horiz-adv-x="820" d="M0 820h820v-820h-820v820z" />
<glyph unicode="&#xfb01;" horiz-adv-x="1303" d="M64 541v70l9 26l26 9h35l26 9l17 17l27 9h69l27 8l17 53l18 17l8 26v35l9 27l17 17l18 52l17 18l18 52l17 18l18 52l174 175l26 8h105l26 -8l35 -35l9 -27l-9 -26l-35 -35l-26 -8h-35l-26 -9l-52 -52l-53 -18l-17 -52l-52 -53l-18 -52l-17 -17l-9 -27v-69l9 -27l26 -8 h279l26 -9l35 -35l9 -26v-35l-9 -26l-35 -35l-26 -9h-174l-27 -9l-17 -17l-52 -18l-70 -69l-9 -27v-34l9 -27l17 -17l9 -26v-35l9 -26l17 -18l9 -26v-70l-9 -26l-35 -35l-26 -9l-26 9l-35 35l-9 26v35l-9 26l-17 18l-9 26v105l-8 26l-18 17l-17 53l-27 8h-69l-27 9l-17 18 l-52 17l-35 35zM995 1100v69l9 27l35 35l26 8l26 -8l70 -70l8 -26v-35l-8 -27l-35 -34l-26 -9h-35l-26 9l-35 34zM1030 17v524l9 26l17 18l9 26v105l8 26l35 35l27 8h34l27 -8l35 -35l8 -26v-140l-8 -26l-18 -18l-9 -26v-523l-8 -27l-35 -35l-26 -8h-35l-27 8l-17 53l-17 17 z" />
<glyph unicode="&#xfb02;" horiz-adv-x="1268" d="M64 541v70l9 26l26 9h35l26 9l17 17l27 9h69l27 8l17 53l18 17l8 26v35l9 27l17 17l18 52l17 18l18 52l17 18l18 52l174 175l26 8h105l26 -8l35 -35l9 -27l-9 -26l-35 -35l-26 -8h-35l-26 -9l-52 -52l-53 -18l-17 -52l-52 -53l-18 -52l-17 -17l-9 -27v-69l9 -27l26 -8 h279l26 -9l35 -35l9 -26v-35l-9 -26l-35 -35l-26 -9h-174l-27 -9l-17 -17l-52 -18l-70 -69l-9 -27v-34l9 -27l17 -17l9 -26v-35l9 -26l17 -18l9 -26v-70l-9 -26l-35 -35l-26 -9l-26 9l-35 35l-9 26v35l-9 26l-17 18l-9 26v105l-8 26l-18 17l-17 53l-27 8h-69l-27 9l-17 18 l-52 17l-35 35zM995 87v245l9 26l17 17l9 26v524l9 26l17 18l17 52l35 35h18l70 -70l8 -26v-419l-8 -26l-18 -18l-9 -26v-454l-8 -26l-35 -35l-26 -8l-27 8l-34 35l-18 53l-17 17z" />
<glyph unicode="&#xfb03;" horiz-adv-x="2234" d="M64 541v70l9 26l26 9h35l26 9l17 17l27 9h69l27 8l17 53l18 17l8 26v35l9 27l17 17l18 52l17 18l18 52l17 18l18 52l174 175l26 8h105l26 -8l35 -35l9 -27l-9 -26l-35 -35l-26 -8h-35l-26 -9l-52 -52l-53 -18l-17 -52l-52 -53l-18 -52l-17 -17l-9 -27v-69l9 -27l26 -8 h279l26 -9l35 -35l9 -26v-35l-9 -26l-35 -35l-26 -9h-174l-27 -9l-17 -17l-52 -18l-70 -69l-9 -27v-34l9 -27l17 -17l9 -26v-35l9 -26l17 -18l9 -26v-70l-9 -26l-35 -35l-26 -9l-26 9l-35 35l-9 26v35l-9 26l-17 18l-9 26v105l-8 26l-18 17l-17 53l-27 8h-69l-27 9l-17 18 l-52 17l-35 35zM995 541v70l9 26l26 9h35l26 9l17 17l27 9h69l27 8l17 53l17 17l9 26v35l9 27l17 17l18 52l17 18l18 52l17 18l18 52l174 175l26 8h105l26 -8l35 -35l9 -27l-9 -26l-35 -35l-26 -8h-35l-26 -9l-52 -52l-53 -18l-17 -52l-53 -53l-17 -52l-17 -17l-9 -27v-69 l9 -27l26 -8h279l26 -9l35 -35l9 -26v-35l-9 -26l-35 -35l-26 -9h-175l-26 -9l-17 -17l-53 -18l-69 -69l-9 -27v-34l9 -27l17 -17l9 -26v-35l9 -26l17 -18l9 -26v-70l-9 -26l-35 -35l-26 -9l-26 9l-35 35l-9 26v35l-9 26l-17 18l-9 26v105l-9 26l-17 17l-17 53l-27 8h-69 l-27 9l-17 18l-52 17l-35 35zM1926 1100v69l9 27l34 35l27 8l26 -8l70 -70l8 -26v-35l-8 -27l-35 -34l-26 -9h-35l-27 9l-34 34zM1961 17v524l8 26l18 18l9 26v105l8 26l35 35l26 8h35l27 -8l34 -35l9 -26v-140l-9 -26l-17 -18l-9 -26v-523l-8 -27l-35 -35l-27 -8h-34l-27 8 l-17 53l-18 17z" />
<glyph unicode="&#xfb04;" horiz-adv-x="2199" d="M64 541v70l9 26l26 9h35l26 9l17 17l27 9h69l27 8l17 53l18 17l8 26v35l9 27l17 17l18 52l17 18l18 52l17 18l18 52l174 175l26 8h105l26 -8l35 -35l9 -27l-9 -26l-35 -35l-26 -8h-35l-26 -9l-52 -52l-53 -18l-17 -52l-52 -53l-18 -52l-17 -17l-9 -27v-69l9 -27l26 -8 h279l26 -9l35 -35l9 -26v-35l-9 -26l-35 -35l-26 -9h-174l-27 -9l-17 -17l-52 -18l-70 -69l-9 -27v-34l9 -27l17 -17l9 -26v-35l9 -26l17 -18l9 -26v-70l-9 -26l-35 -35l-26 -9l-26 9l-35 35l-9 26v35l-9 26l-17 18l-9 26v105l-8 26l-18 17l-17 53l-27 8h-69l-27 9l-17 18 l-52 17l-35 35zM995 541v70l9 26l26 9h35l26 9l17 17l27 9h69l27 8l17 53l17 17l9 26v35l9 27l17 17l18 52l17 18l18 52l17 18l18 52l174 175l26 8h105l26 -8l35 -35l9 -27l-9 -26l-35 -35l-26 -8h-35l-26 -9l-52 -52l-53 -18l-17 -52l-53 -53l-17 -52l-17 -17l-9 -27v-69 l9 -27l26 -8h279l26 -9l35 -35l9 -26v-35l-9 -26l-35 -35l-26 -9h-175l-26 -9l-17 -17l-53 -18l-69 -69l-9 -27v-34l9 -27l17 -17l9 -26v-35l9 -26l17 -18l9 -26v-70l-9 -26l-35 -35l-26 -9l-26 9l-35 35l-9 26v35l-9 26l-17 18l-9 26v105l-9 26l-17 17l-17 53l-27 8h-69 l-27 9l-17 18l-52 17l-35 35zM1926 87v245l9 26l17 17l9 26v524l8 26l18 18l17 52l35 35h18l70 -70l8 -26v-419l-8 -26l-18 -18l-9 -26v-454l-8 -26l-35 -35l-26 -8l-27 8l-35 35l-17 53l-17 17z" />
</font>
</defs>
</svg>
